<svg width="18" height="18" viewBox="0 0 18 18" fill="none" xmlns="http://www.w3.org/2000/svg">
<path d="M0.666748 7.74984C0.666748 11.6619 3.83806 14.8332 7.75008 14.8332C9.40581 14.8332 10.9288 14.2651 12.1349 13.3132L16.0943 17.2726L17.2729 16.0941L13.3134 12.1347C13.9353 11.3468 14.3933 10.4236 14.6362 9.4165H12.9055C12.2025 11.5926 10.1601 13.1665 7.75008 13.1665C4.75854 13.1665 2.33341 10.7414 2.33341 7.74984C2.33341 4.7583 4.75854 2.33317 7.75008 2.33317C10.1601 2.33317 12.2025 3.90712 12.9055 6.08317H14.6362C13.8867 2.97537 11.088 0.666504 7.75008 0.666504C3.83806 0.666504 0.666748 3.83782 0.666748 7.74984Z" fill="#522583"/>
</svg>
